# xmcd
# 
# Track frame offsets:
#     150
#     10885
#     28140
#     46238
#     51430
#     67393
#     69928
#     92648
#     112985
#     126983
#     143920
#     163228
#     174145
#     190875
#     205330
#     216350
#     220195
# 
# Disc length: 3141
# 
# Revision: 2
# Processed by: cddbd v1.5.2PL0 Copyright (c) Steve Scherf et al.
# Submitted via: fre:ac v1.0.31
# 
DISCID=040c4311
DTITLE=Sparklehorse - Good Morning Spider
DYEAR=1998
DGENRE=Alternative
TTITLE0=Pig
TTITLE1=Painbirds
TTITLE2=Saint Mary
TTITLE3=Good Morning Spider
TTITLE4=Sick Of Goodbyes
TTITLE5=Box Of Stars (Part One)
TTITLE6=Sunshine
TTITLE7=Chaos Of The Galaxy/Happy Man
TTITLE8=Hey, Joe
TTITLE9=Come On In
TTITLE10=Maria's Little Elbows
TTITLE11=Cruel Sun
TTITLE12=All Night Home
TTITLE13=Ghost Of His Smile
TTITLE14=Hundreds Of Sparrows
TTITLE15=Box Of Stars (Part Two)
TTITLE16=Junebug
EXTD=
EXTT0=
EXTT1=
EXTT2=
EXTT3=
EXTT4=
EXTT5=
EXTT6=
EXTT7=
EXTT8=
EXTT9=
EXTT10=
EXTT11=
EXTT12=
EXTT13=
EXTT14=
EXTT15=
EXTT16=
PLAYORDER=
